<?xml version="1.0" encoding="UTF-8" standalone="no"?>
<!DOCTYPE svg PUBLIC "-//W3C//DTD SVG 1.1//EN"
 "http://www.w3.org/Graphics/SVG/1.1/DTD/svg11.dtd">
<!-- Generated by graphviz version 2.44.1 (20200629.0846)
 -->
<!-- Title: G Pages: 1 -->
<svg width="426pt" height="712pt"
 viewBox="0.00 0.00 425.51 712.02" xmlns="http://www.w3.org/2000/svg" xmlns:xlink="http://www.w3.org/1999/xlink">
<g id="graph0" class="graph" transform="scale(1 1) rotate(0) translate(10.8 701.22)">
<title>G</title>
<!-- start -->
<g id="node1" class="node">
<title>start</title>
<ellipse fill="#ffffff" stroke="#334155" cx="206.64" cy="-664.97" rx="129.27" ry="25.41"/>
<text text-anchor="middle" x="206.64" y="-660.47" font-family="Microsoft YaHei" font-size="15.00" fill="#0f172a">用户进入个人学习空间</text>
</g>
<!-- task -->
<g id="node2" class="node">
<title>task</title>
<polygon fill="#ffffff" stroke="#334155" points="285.8,-598.51 127.48,-598.51 127.48,-562.51 285.8,-562.51 285.8,-598.51"/>
<text text-anchor="middle" x="206.64" y="-576.01" font-family="Microsoft YaHei" font-size="15.00" fill="#0f172a">选择任务与学习场景</text>
</g>
<!-- start&#45;&gt;task -->
<g id="edge1" class="edge">
<title>start&#45;&gt;task</title>
<path fill="none" stroke="#475569" d="M206.64,-639.23C206.64,-628.69 206.64,-616.44 206.64,-605.94"/>
<polygon fill="#475569" stroke="#475569" points="209.09,-605.65 206.64,-598.65 204.19,-605.65 209.09,-605.65"/>
</g>
<!-- kind -->
<g id="node3" class="node">
<title>kind</title>
<polygon fill="#ffffff" stroke="#334155" points="206.64,-521.51 90.31,-485.51 206.64,-449.51 322.97,-485.51 206.64,-521.51"/>
<text text-anchor="middle" x="206.64" y="-481.01" font-family="Microsoft YaHei" font-size="15.00" fill="#0f172a">规划课程？</text>
</g>
<!-- task&#45;&gt;kind -->
<g id="edge2" class="edge">
<title>task&#45;&gt;kind</title>
<path fill="none" stroke="#475569" d="M206.64,-562.45C206.64,-552.99 206.64,-540.75 206.64,-528.88"/>
<polygon fill="#475569" stroke="#475569" points="209.09,-528.57 206.64,-521.57 204.19,-528.57 209.09,-528.57"/>
</g>
<!-- material -->
<g id="node4" class="node">
<title>material</title>
<polygon fill="#ffffff" stroke="#334155" points="229.42,-393.91 -0.14,-393.91 -0.14,-357.91 229.42,-357.91 229.42,-393.91"/>
<text text-anchor="middle" x="114.64" y="-371.41" font-family="Microsoft YaHei" font-size="15.00" fill="#0f172a">按需选用个人资料与网络内容</text>
</g>
<!-- kind&#45;&gt;material -->
<g id="edge3" class="edge">
<title>kind&#45;&gt;material</title>
<path fill="none" stroke="#475569" d="M182.95,-456.8C167.74,-439.01 148.23,-416.2 133.96,-399.51"/>
<polygon fill="#475569" stroke="#475569" points="135.75,-397.83 129.34,-394.1 132.02,-401.01 135.75,-397.83"/>
<text text-anchor="middle" x="165.5" y="-417.81" font-family="Microsoft YaHei" font-size="13.00" fill="#334155">是</text>
</g>
<!-- ask -->
<g id="node7" class="node">
<title>ask</title>
<polygon fill="#ffffff" stroke="#334155" points="344.6,-393.91 254.68,-393.91 254.68,-357.91 344.6,-357.91 344.6,-393.91"/>
<text text-anchor="middle" x="299.64" y="-371.41" font-family="Microsoft YaHei" font-size="15.00" fill="#0f172a">即时提问</text>
</g>
<!-- kind&#45;&gt;ask -->
<g id="edge4" class="edge">
<title>kind&#45;&gt;ask</title>
<path fill="none" stroke="#475569" d="M230.59,-456.8C245.97,-439.01 265.68,-416.2 280.11,-399.51"/>
<polygon fill="#475569" stroke="#475569" points="282.06,-401 284.78,-394.1 278.35,-397.79 282.06,-401"/>
<text text-anchor="middle" x="312.92" y="-417.81" font-family="Microsoft YaHei" font-size="13.00" fill="#334155">否：即时对话</text>
</g>
<!-- route -->
<g id="node5" class="node">
<title>route</title>
<polygon fill="#ffffff" stroke="#334155" points="199.59,-316.91 31.69,-316.91 31.69,-280.91 199.59,-280.91 199.59,-316.91"/>
<text text-anchor="middle" x="115.64" y="-294.41" font-family="Microsoft YaHei" font-size="15.00" fill="#0f172a">生成、确认学习路线</text>
</g>
<!-- material&#45;&gt;route -->
<g id="edge5" class="edge">
<title>material&#45;&gt;route</title>
<path fill="none" stroke="#475569" d="M114.87,-357.89C115,-347.99 115.17,-335.34 115.31,-324.38"/>
<polygon fill="#475569" stroke="#475569" points="117.77,-324.15 115.41,-317.12 112.87,-324.09 117.77,-324.15"/>
</g>
<!-- teach -->
<g id="node6" class="node">
<title>teach</title>
<polygon fill="#ffffff" stroke="#334155" points="232.29,-204.91 4.99,-204.91 4.99,-168.91 232.29,-168.91 232.29,-204.91"/>
<text text-anchor="middle" x="118.64" y="-182.41" font-family="Microsoft YaHei" font-size="15.00" fill="#0f172a">分步教学：文字、板书、语音</text>
</g>
<!-- route&#45;&gt;teach -->
<g id="edge6" class="edge">
<title>route&#45;&gt;teach</title>
<path fill="none" stroke="#475569" d="M116.11,-280.72C116.61,-262.32 117.41,-232.96 117.98,-212.2"/>
<polygon fill="#475569" stroke="#475569" points="120.43,-212.04 118.17,-204.98 115.53,-211.91 120.43,-212.04"/>
</g>
<!-- follow -->
<g id="node9" class="node">
<title>follow</title>
<polygon fill="#ffffff" stroke="#334155" points="258.48,-127.91 6.8,-127.91 6.8,-91.91 258.48,-91.91 258.48,-127.91"/>
<text text-anchor="middle" x="132.64" y="-105.41" font-family="Microsoft YaHei" font-size="15.00" fill="#0f172a">课程按需追问、暂停、回看与恢复</text>
</g>
<!-- teach&#45;&gt;follow -->
<g id="edge9" class="edge">
<title>teach&#45;&gt;follow</title>
<path fill="none" stroke="#475569" d="M121.82,-168.89C123.68,-158.9 126.07,-146.1 128.13,-135.07"/>
<polygon fill="#475569" stroke="#475569" points="130.55,-135.45 129.43,-128.12 125.73,-134.55 130.55,-135.45"/>
</g>
<!-- chat -->
<g id="node8" class="node">
<title>chat</title>
<polygon fill="#ffffff" stroke="#334155" points="403.68,-260.91 193.6,-260.91 193.6,-224.91 403.68,-224.91 403.68,-260.91"/>
<text text-anchor="middle" x="298.64" y="-238.41" font-family="Microsoft YaHei" font-size="15.00" fill="#0f172a">纯文字对话与连续追问</text>
</g>
<!-- ask&#45;&gt;chat -->
<g id="edge7" class="edge">
<title>ask&#45;&gt;chat</title>
<path fill="none" stroke="#475569" d="M299.51,-357.79C299.33,-334.94 299.02,-294.34 298.83,-268.3"/>
<polygon fill="#475569" stroke="#475569" points="301.27,-268.02 298.77,-261.04 296.37,-268.06 301.27,-268.02"/>
</g>
<!-- save -->
<g id="node10" class="node">
<title>save</title>
<ellipse fill="#ffffff" stroke="#334155" cx="215.64" cy="-25.46" rx="112.75" ry="25.41"/>
<text text-anchor="middle" x="215.64" y="-20.96" font-family="Microsoft YaHei" font-size="15.00" fill="#0f172a">保存个人学习记录</text>
</g>
<!-- chat&#45;&gt;save -->
<g id="edge8" class="edge">
<title>chat&#45;&gt;save</title>
<path fill="none" stroke="#475569" d="M295.54,-224.7C288.45,-185.3 271.64,-91.91 271.64,-91.91 271.64,-91.91 256.12,-73.77 241.42,-56.59"/>
<polygon fill="#475569" stroke="#475569" points="242.9,-54.56 236.49,-50.83 239.18,-57.74 242.9,-54.56"/>
</g>
<!-- follow&#45;&gt;save -->
<g id="edge10" class="edge">
<title>follow&#45;&gt;save</title>
<path fill="none" stroke="#475569" d="M149.84,-91.83C160.39,-81.34 174.18,-67.64 186.41,-55.49"/>
<polygon fill="#475569" stroke="#475569" points="188.3,-57.07 191.54,-50.4 184.85,-53.59 188.3,-57.07"/>
</g>
</g>
</svg>
